<?xml version="1.0" encoding="utf-8"?>
<!-- Generator: Adobe Illustrator 22.1.0, SVG Export Plug-In . SVG Version: 6.00 Build 0)  -->
<svg version="1.1" id="Слой_1" xmlns="http://www.w3.org/2000/svg" xmlns:xlink="http://www.w3.org/1999/xlink" x="0px" y="0px"
	 viewBox="0 0 60 62" style="enable-background:new 0 0 60 62;" xml:space="preserve">
<style type="text/css">
	.st0{fill:none;stroke:#FFFFFF;stroke-width:2;stroke-linecap:round;stroke-linejoin:round;stroke-miterlimit:10;}
</style>
<circle class="st0" cx="28.8" cy="30.6" r="22.8"/>
<line class="st0" x1="51.7" y1="55" x2="44.9" y2="48.3"/>
<line class="st0" x1="55.1" y1="58.4" x2="54.1" y2="57.5"/>
<path class="st0" d="M20.9,31.4c0,0-1.2,4.3,7.8,10.7c9.9,7,7,9.7,7,9.7"/>
<path class="st0" d="M26.7,44C20,50.1,22,51.8,22,51.8"/>
<path class="st0" d="M29,42.1c6.5-4.3,7.8-7.4,7.9-10.7c0.2-5.2-3.1-8.2-9.7-12.7c-7.2-4.9-6.1-8.1-6.1-8.1"/>
<line class="st0" x1="26.4" y1="35.7" x2="35.2" y2="35.7"/>
<line class="st0" x1="26.4" y1="26.6" x2="34.4" y2="26.6"/>
<line class="st0" x1="29.5" y1="48.3" x2="23.1" y2="48.3"/>
<path class="st0" d="M26.7,21.4C20,27.5,21,31.8,21,31.8"/>
<path class="st0" d="M36.7,10c0,0-0.2,3.9-7.7,9.6"/>
<line class="st0" x1="26.4" y1="13.6" x2="34.4" y2="13.6"/>
<line class="st0" x1="31.6" y1="31.8" x2="21.4" y2="31.8"/>
<path class="st0" d="M110,39.8c2.6,2.1,3.4,4.7,4.3,7.3c0.9,2.6,1.3,4.7-6,7.3c-7.3,2.6-23.9,1.7-29.9,0.9s-9.8-2.6-9.4-6
	s1.7-5.1,4.3-8.5c2.6-3.4,10.3-5.4,18.7-5.4S107.4,37.6,110,39.8z"/>
<path class="st0" d="M86.1,35.9c0,0-1.8,0.2-3,1.7c-1.3,1.7-0.9,3.4-0.9,3.4"/>
<path class="st0" d="M101.3,40.1c-0.2-0.6-0.6-1.5-1.3-2.4c-1.1-1.5-3-1.7-3-1.7"/>
<path class="st0" d="M79.6,50.5c0,0-1.1,0-1.4,0s-1.4-1.4-1.1-3.2c0.4-1.8,2.1-5.3,5-5.3s3.6,3.9,3.6,5.7s-0.4,2.8-1.1,2.8
	s-1.4,0-1.4,0"/>
<circle class="st0" cx="102.2" cy="42.5" r="2.3"/>
<line class="st0" x1="97.1" y1="45.8" x2="97.1" y2="51.7"/>
<line class="st0" x1="94.2" y1="48.7" x2="100" y2="48.7"/>
<path class="st0" d="M103.8,20.2c-0.6,0.6-2.2,1.1-2.2,1.1s-5.4,1.1-14.1-4.3c-2.1-1.3-4.3-4.3-4.3-4.3s-2.6,3.2-3.8,6"/>
<path class="st0" d="M133.1,42.2c0-14.6,10.8-26.4,25.4-26.4s25.4,11.8,25.4,26.4"/>
<path class="st0" d="M156.8,12.4v-1.7c0-1.5,0.2-2.7,1.7-2.7s1.7,1.2,1.7,2.7v1.7"/>
<path class="st0" d="M142.1,35c1-6.6,5.8-12,12.1-14"/>
<line class="st0" x1="183.2" y1="42.2" x2="134" y2="42.2"/>
<line class="st0" x1="186.6" y1="47.6" x2="129" y2="47.6"/>
<polyline class="st0" points="133.7,49.3 137.1,54 179.1,54 182.5,48.6 "/>
<path class="st0" d="M79.4,18.6C79.4,9.4,82.7,4,91.9,4s12.5,6.2,12.5,14.6c0,9.2-7.3,16.6-12.5,16.6S79.4,27.8,79.4,18.6z"/>
</svg>
